G04 #@! TF.FileFunction,Legend,Top*
%FSLAX46Y46*%
G04 Gerber Fmt 4.6, Leading zero omitted, Abs format (unit mm)*
G04 Created by KiCad (PCBNEW 4.0.6) date Tuesday, May 30, 2017 'AMt' 11:09:12 AM*
%MOMM*%
%LPD*%
G01*
G04 APERTURE LIST*
%ADD10C,0.100000*%
%ADD11C,0.127000*%
%ADD12C,0.101600*%
G04 APERTURE END LIST*
D10*
D11*
X162242500Y-104698800D02*
X162242500Y-106121200D01*
X162953700Y-105410000D02*
X161531300Y-105410000D01*
X162745394Y-105410000D02*
G75*
G03X162745394Y-105410000I-502894J0D01*
G01*
X163763960Y-104267000D02*
X163763960Y-106553000D01*
X161988500Y-104267000D02*
X163763960Y-104267000D01*
X161988500Y-102552500D02*
X161988500Y-104267000D01*
X161480500Y-107442000D02*
X161480500Y-108267500D01*
X161988500Y-107442000D02*
X161480500Y-107442000D01*
X161988500Y-106553000D02*
X161988500Y-107442000D01*
X163763960Y-106553000D02*
X161988500Y-106553000D01*
X161480500Y-108267500D02*
X154241500Y-108267500D01*
X154241500Y-108267500D02*
X154241500Y-106553000D01*
X154241500Y-106553000D02*
X152466040Y-106553000D01*
X152466040Y-106553000D02*
X152466040Y-104267000D01*
X152466040Y-104267000D02*
X154241500Y-104267000D01*
X154241500Y-104267000D02*
X154241500Y-102552500D01*
X154241500Y-102552500D02*
X161988500Y-102552500D01*
X154490394Y-105410000D02*
G75*
G03X154490394Y-105410000I-502894J0D01*
G01*
X154698700Y-105410000D02*
X153276300Y-105410000D01*
X153987500Y-104698800D02*
X153987500Y-106121200D01*
D12*
X159342667Y-100777524D02*
X159342667Y-101684667D01*
X159282191Y-101866095D01*
X159161239Y-101987048D01*
X158979810Y-102047524D01*
X158858858Y-102047524D01*
X160612667Y-102047524D02*
X159886953Y-102047524D01*
X160249810Y-102047524D02*
X160249810Y-100777524D01*
X160128858Y-100958952D01*
X160007905Y-101079905D01*
X159886953Y-101140381D01*
X150440571Y-108651524D02*
X151166286Y-108651524D01*
X150803429Y-109921524D02*
X150803429Y-108651524D01*
X152012952Y-109256286D02*
X151589619Y-109256286D01*
X151589619Y-109921524D02*
X151589619Y-108651524D01*
X152194381Y-108651524D01*
X152678190Y-109921524D02*
X152678190Y-108651524D01*
X153101523Y-109558667D01*
X153524857Y-108651524D01*
X153524857Y-109921524D01*
X154129619Y-109437714D02*
X155097238Y-109437714D01*
X156367238Y-109921524D02*
X155641524Y-109921524D01*
X156004381Y-109921524D02*
X156004381Y-108651524D01*
X155883429Y-108832952D01*
X155762476Y-108953905D01*
X155641524Y-109014381D01*
X157153429Y-108651524D02*
X157274381Y-108651524D01*
X157395333Y-108712000D01*
X157455810Y-108772476D01*
X157516286Y-108893429D01*
X157576762Y-109135333D01*
X157576762Y-109437714D01*
X157516286Y-109679619D01*
X157455810Y-109800571D01*
X157395333Y-109861048D01*
X157274381Y-109921524D01*
X157153429Y-109921524D01*
X157032476Y-109861048D01*
X156972000Y-109800571D01*
X156911524Y-109679619D01*
X156851048Y-109437714D01*
X156851048Y-109135333D01*
X156911524Y-108893429D01*
X156972000Y-108772476D01*
X157032476Y-108712000D01*
X157153429Y-108651524D01*
X158725810Y-108651524D02*
X158121048Y-108651524D01*
X158060572Y-109256286D01*
X158121048Y-109195810D01*
X158242000Y-109135333D01*
X158544381Y-109135333D01*
X158665334Y-109195810D01*
X158725810Y-109256286D01*
X158786286Y-109377238D01*
X158786286Y-109679619D01*
X158725810Y-109800571D01*
X158665334Y-109861048D01*
X158544381Y-109921524D01*
X158242000Y-109921524D01*
X158121048Y-109861048D01*
X158060572Y-109800571D01*
X159330572Y-109437714D02*
X160298191Y-109437714D01*
X161144858Y-108651524D02*
X161265810Y-108651524D01*
X161386762Y-108712000D01*
X161447239Y-108772476D01*
X161507715Y-108893429D01*
X161568191Y-109135333D01*
X161568191Y-109437714D01*
X161507715Y-109679619D01*
X161447239Y-109800571D01*
X161386762Y-109861048D01*
X161265810Y-109921524D01*
X161144858Y-109921524D01*
X161023905Y-109861048D01*
X160963429Y-109800571D01*
X160902953Y-109679619D01*
X160842477Y-109437714D01*
X160842477Y-109135333D01*
X160902953Y-108893429D01*
X160963429Y-108772476D01*
X161023905Y-108712000D01*
X161144858Y-108651524D01*
X162052001Y-108772476D02*
X162112477Y-108712000D01*
X162233429Y-108651524D01*
X162535810Y-108651524D01*
X162656763Y-108712000D01*
X162717239Y-108772476D01*
X162777715Y-108893429D01*
X162777715Y-109014381D01*
X162717239Y-109195810D01*
X161991525Y-109921524D01*
X162777715Y-109921524D01*
X163322001Y-109437714D02*
X164289620Y-109437714D01*
X164773430Y-108651524D02*
X165620096Y-109921524D01*
X165620096Y-108651524D02*
X164773430Y-109921524D01*
X166103906Y-109437714D02*
X167071525Y-109437714D01*
X167676287Y-109921524D02*
X167676287Y-108651524D01*
X167978668Y-108651524D01*
X168160096Y-108712000D01*
X168281049Y-108832952D01*
X168341525Y-108953905D01*
X168402001Y-109195810D01*
X168402001Y-109377238D01*
X168341525Y-109619143D01*
X168281049Y-109740095D01*
X168160096Y-109861048D01*
X167978668Y-109921524D01*
X167676287Y-109921524D01*
X168946287Y-109921524D02*
X168946287Y-108651524D01*
X168946287Y-109256286D02*
X169672001Y-109256286D01*
X169672001Y-109921524D02*
X169672001Y-108651524D01*
X155810857Y-102047524D02*
X155085143Y-102047524D01*
X155448000Y-102047524D02*
X155448000Y-100777524D01*
X155327048Y-100958952D01*
X155206095Y-101079905D01*
X155085143Y-101140381D01*
X155212143Y-108772476D02*
X155272619Y-108712000D01*
X155393571Y-108651524D01*
X155695952Y-108651524D01*
X155816905Y-108712000D01*
X155877381Y-108772476D01*
X155937857Y-108893429D01*
X155937857Y-109014381D01*
X155877381Y-109195810D01*
X155151667Y-109921524D01*
X155937857Y-109921524D01*
M02*
